<?xml version="1.0" standalone="no"?>
<!DOCTYPE svg PUBLIC "-//W3C//DTD SVG 20010904//EN"
 "http://www.w3.org/TR/2001/REC-SVG-20010904/DTD/svg10.dtd">
<svg version="1.0" xmlns="http://www.w3.org/2000/svg"
 width="340.000000pt" height="250.000000pt" viewBox="0 0 340.000000 250.000000"
 preserveAspectRatio="xMidYMid meet">

<g transform="translate(0.000000,250.000000) scale(0.100000,-0.100000)"
fill="#000000" stroke="none">
<path d="M2079 2077 c-103 -29 -190 -104 -238 -206 l-26 -56 -3 -485 c-2 -314
1 -514 8 -568 20 -153 87 -302 180 -404 40 -44 48 -49 73 -43 44 11 85 59 92
108 3 23 5 407 3 852 -3 802 -3 810 -23 812 -11 1 -41 -4 -66 -10z"/>
<path d="M2212 2036 c11 -97 86 -194 188 -244 l55 -27 300 0 300 0 -2 39 c-3
49 -41 132 -82 178 -18 21 -60 51 -93 68 l-61 30 -305 0 -305 0 5 -44z"/>
<path d="M613 2036 l-28 -24 0 -714 0 -713 27 -57 c14 -31 45 -77 68 -102 49
-53 146 -104 205 -108 l40 -3 3 755 c1 527 -1 763 -9 781 -6 15 -52 68 -103
118 -87 85 -96 91 -134 91 -29 0 -49 -7 -69 -24z"/>
<path d="M975 1740 c10 -118 34 -218 74 -317 73 -177 109 -222 427 -543 161
-162 295 -292 297 -290 8 10 -14 178 -34 255 -28 110 -104 264 -177 360 -33
44 -181 199 -327 345 l-267 265 7 -75z"/>
<path d="M2484 1370 c-139 -20 -259 -141 -272 -272 l-5 -50 189 4 c173 3 193
5 235 26 105 52 176 145 186 245 l5 52 -143 1 c-79 1 -167 -2 -195 -6z"/>
</g>
</svg>
